<svg xmlns="http://www.w3.org/2000/svg" xmlns:xlink="http://www.w3.org/1999/xlink" width="150" height="150" viewBox="0 0 150 150">
  <defs>
    <clipPath id="clip-Artboard_6">
      <rect width="150" height="150"/>
    </clipPath>
  </defs>
  <g id="Artboard_6" data-name="Artboard – 6" clip-path="url(#clip-Artboard_6)">
    <g id="Instagram" transform="translate(44.203 44.203)">
      <path id="Path_3" data-name="Path 3" d="M30.8,5.475c8.212,0,9.239,0,12.319.342a15.871,15.871,0,0,1,5.817,1.027,12.017,12.017,0,0,1,5.817,5.817,15.871,15.871,0,0,1,1.027,5.817c0,3.08.342,4.106.342,12.319s0,9.239-.342,12.319a15.871,15.871,0,0,1-1.027,5.817,12.017,12.017,0,0,1-5.817,5.817,15.871,15.871,0,0,1-5.817,1.027c-3.08,0-4.106.342-12.319.342s-9.239,0-12.319-.342a15.871,15.871,0,0,1-5.817-1.027,12.017,12.017,0,0,1-5.817-5.817,15.871,15.871,0,0,1-1.027-5.817c0-3.08-.342-4.106-.342-12.319s0-9.239.342-12.319a15.871,15.871,0,0,1,1.027-5.817,12.29,12.29,0,0,1,2.4-3.422,5.785,5.785,0,0,1,3.422-2.4,15.871,15.871,0,0,1,5.817-1.027c3.08-.342,4.106-.342,12.319-.342M30.8,0c-8.212,0-9.581,0-12.661.342a21.125,21.125,0,0,0-7.528,1.369A13.4,13.4,0,0,0,5.133,5.133a13.4,13.4,0,0,0-3.422,5.475C.684,12.661.342,14.714.342,18.136,0,21.215,0,22.584,0,30.8s0,9.581.342,12.661a21.125,21.125,0,0,0,1.369,7.528,13.4,13.4,0,0,0,3.422,5.475,13.4,13.4,0,0,0,5.475,3.422,21.125,21.125,0,0,0,7.528,1.369c3.08.342,4.448.342,12.661.342s9.581,0,12.661-.342a21.125,21.125,0,0,0,7.528-1.369,14.356,14.356,0,0,0,8.9-8.9,21.125,21.125,0,0,0,1.369-7.528c0-3.422.342-4.448.342-12.661s0-9.581-.342-12.661a21.125,21.125,0,0,0-1.369-7.528,13.4,13.4,0,0,0-3.422-5.475,13.4,13.4,0,0,0-5.475-3.422A21.125,21.125,0,0,0,43.458.342C40.378,0,39.009,0,30.8,0m0,15.056A15.487,15.487,0,0,0,15.056,30.8,15.741,15.741,0,1,0,30.8,15.056m0,26.006A10.082,10.082,0,0,1,20.531,30.8,10.082,10.082,0,0,1,30.8,20.531,10.082,10.082,0,0,1,41.062,30.8,10.082,10.082,0,0,1,30.8,41.062M47.222,10.608a3.764,3.764,0,1,0,3.764,3.764,3.8,3.8,0,0,0-3.764-3.764" transform="translate(0 0)" fill="#0b2f6c" fill-rule="evenodd"/>
    </g>
  </g>
</svg>
