<svg id="Layer_1" data-name="Layer 1" xmlns="http://www.w3.org/2000/svg" viewBox="0 0 250 250"><defs><style>.cls-1{fill:none;stroke-width:12.82px;}.cls-1,.cls-2{stroke:#0b2f6c;stroke-miterlimit:10;}.cls-2{fill:#0b2f6c;stroke-width:0.8px;}</style></defs><ellipse class="cls-1" cx="49.84" cy="143.95" rx="42.34" ry="40.98"/><path class="cls-2" d="M85.83,44.33h27.69a2.84,2.84,0,0,1,2.77,2.84v3.7a2.79,2.79,0,0,1-2.77,2.84H85.83a2.84,2.84,0,0,1-2.77-2.84v-3.7A2.84,2.84,0,0,1,85.83,44.33Z"/><path class="cls-2" d="M129.8,154.27l-59-62.81a1.73,1.73,0,0,1,0-2h0l6.6-5.83a1.33,1.33,0,0,1,2,.16l59,62.81a1.52,1.52,0,0,1,0,1.81l-.17.16-6.59,5.83A1.53,1.53,0,0,1,129.8,154.27Z"/><path class="cls-2" d="M77.77,74h85.34a1.33,1.33,0,0,1,1.3,1.34v8.2a1.33,1.33,0,0,1-1.3,1.34H77.77a1.33,1.33,0,0,1-1.3-1.34v-8.2A1.33,1.33,0,0,1,77.77,74Z"/><path class="cls-2" d="M126.79,146l40.63-86.14a1.42,1.42,0,0,1,1.88-.71l7.49,3.31a1.37,1.37,0,0,1,.73,1.81v.16l-40.63,86.14a1.42,1.42,0,0,1-1.87.71l-7.5-3.31a1.63,1.63,0,0,1-.73-2Z"/><path class="cls-2" d="M148.86,57.81h38.59a2,2,0,0,1,1.88,2V64.9a2,2,0,0,1-1.88,2H149.1A3.88,3.88,0,0,1,145.36,63h0v-1.5A3.49,3.49,0,0,1,148.86,57.81Z"/><ellipse class="cls-1" cx="200.16" cy="143.95" rx="42.34" ry="40.98"/><path class="cls-2" d="M45,155.3h0A6,6,0,0,0,52.86,152L94.22,51.35a3.46,3.46,0,0,0-1.55-4.18.16.16,0,0,1-.16-.16l-5.46-2.13a3.4,3.4,0,0,0-4.31,1.82l-41,100.24a6.46,6.46,0,0,0,3.34,8.2C44.88,155.14,45,155.14,45,155.3Z"/><path class="cls-2" d="M167.59,73.33l36.64,72.43a6.43,6.43,0,0,1-2.61,8.36c-.16,0-.32.15-.4.15h0a5.31,5.31,0,0,1-7.17-2.36L157,78.46a.79.79,0,0,1,.33-1h0l9.2-4.33c.16-.4.73-.24,1.06.23Z"/><path class="cls-2" d="M198.85,155.14H133.14a3.6,3.6,0,0,1-3.58-3.7v-3.16a3.53,3.53,0,0,1,3.42-3.7h68a3.11,3.11,0,0,1,3,3.15v1.66A5.13,5.13,0,0,1,198.85,155.14Z"/><ellipse class="cls-2" cx="130.05" cy="146.47" rx="12.87" ry="13"/></svg>