<svg xmlns="http://www.w3.org/2000/svg" xmlns:xlink="http://www.w3.org/1999/xlink" width="1920" height="1075" viewBox="0 0 1920 1075">
  <defs>
    <clipPath id="clip-Billede_grafiske_elementer">
      <rect width="1920" height="1075"/>
    </clipPath>
  </defs>
  <g id="Billede_grafiske_elementer" clip-path="url(#clip-Billede_grafiske_elementer)">
    <rect width="1920" height="1075" fill="#f1ecdd"/>
    <g id="Group_11" data-name="Group 11">
      <line id="Line_5" data-name="Line 5" x2="246" y2="2" transform="translate(0.5 866.5)" fill="none" stroke="#265127" stroke-width="3"/>
      <line id="Line_6" data-name="Line 6" x1="128" y1="207" transform="translate(246.5 868.5)" fill="none" stroke="#265127" stroke-width="3"/>
      <line id="Line_7" data-name="Line 7" y1="141" x2="99" transform="translate(1485.5 934.5)" fill="none" stroke="#265127" stroke-width="3"/>
      <line id="Line_8" data-name="Line 8" y2="266" transform="translate(1584.5 668.5)" fill="none" stroke="#265127" stroke-width="3"/>
      <line id="Line_9" data-name="Line 9" x1="336" y2="156" transform="translate(1584.5 512.5)" fill="none" stroke="#265127" stroke-width="3"/>
      <g id="Layer_2" data-name="Layer 2" transform="matrix(-0.407, 0.914, -0.914, -0.407, 723.352, 23.698)">
        <g id="Layer_1" data-name="Layer 1" transform="translate(1.6 3.001)">
          <path id="Path_12" data-name="Path 12" d="M1.6,56.321C122.091-19.939,275.748-13.654,383.412,70.4c93.1,72.669,138.719,193.238,119.646,313.349L707.16,501.7" transform="translate(-1.6 -3.001)" fill="none" stroke="#265127" stroke-miterlimit="10" stroke-width="3"/>
        </g>
      </g>
      <line id="Line_10" data-name="Line 10" x2="46" y2="116" transform="translate(1462.5 0.5)" fill="none" stroke="#265127" stroke-width="3"/>
      <line id="Line_11" data-name="Line 11" x1="412" y1="202" transform="translate(1508.5 116.5)" fill="none" stroke="#265127" stroke-width="3"/>
      <line id="Line_12" data-name="Line 12" x2="246" y2="2" transform="translate(0.5 866.5)" fill="none" stroke="#265127" stroke-width="3"/>
      <line id="Line_13" data-name="Line 13" x1="128" y1="207" transform="translate(246.5 868.5)" fill="none" stroke="#265127" stroke-width="3"/>
      <line id="Line_14" data-name="Line 14" y1="141" x2="99" transform="translate(1485.5 934.5)" fill="none" stroke="#265127" stroke-width="3"/>
      <line id="Line_15" data-name="Line 15" y2="266" transform="translate(1584.5 668.5)" fill="none" stroke="#265127" stroke-width="3"/>
      <line id="Line_16" data-name="Line 16" x1="336" y2="156" transform="translate(1584.5 512.5)" fill="none" stroke="#265127" stroke-width="3"/>
      <g id="Layer_2-2" data-name="Layer 2" transform="matrix(-0.407, 0.914, -0.914, -0.407, 723.352, 23.698)">
        <g id="Layer_1-2" data-name="Layer 1" transform="translate(1.6 3.001)">
          <path id="Path_12-2" data-name="Path 12" d="M1.6,56.321C122.091-19.939,275.748-13.654,383.412,70.4c93.1,72.669,138.719,193.238,119.646,313.349L707.16,501.7" transform="translate(-1.6 -3.001)" fill="none" stroke="#265127" stroke-miterlimit="10" stroke-width="3"/>
        </g>
      </g>
      <line id="Line_17" data-name="Line 17" x2="46" y2="116" transform="translate(1462.5 0.5)" fill="none" stroke="#265127" stroke-width="3"/>
      <line id="Line_18" data-name="Line 18" x1="412" y1="202" transform="translate(1508.5 116.5)" fill="none" stroke="#265127" stroke-width="3"/>
      <line id="Line_20" data-name="Line 20" x2="246" y2="2" transform="translate(0.5 866.5)" fill="none" stroke="#265127" stroke-width="3"/>
      <line id="Line_21" data-name="Line 21" x1="128" y1="207" transform="translate(246.5 868.5)" fill="none" stroke="#265127" stroke-width="3"/>
    </g>
    <g id="Group_13" data-name="Group 13" transform="translate(-0.5 1133)">
      <line id="Line_5-2" data-name="Line 5" x2="246" y2="2" transform="translate(0.5 866.5)" fill="none" stroke="#265127" stroke-width="3"/>
      <line id="Line_6-2" data-name="Line 6" x1="128" y1="207" transform="translate(246.5 868.5)" fill="none" stroke="#265127" stroke-width="3"/>
      <line id="Line_7-2" data-name="Line 7" y1="141" x2="99" transform="translate(1485.5 934.5)" fill="none" stroke="#265127" stroke-width="3"/>
      <line id="Line_8-2" data-name="Line 8" y2="266" transform="translate(1584.5 668.5)" fill="none" stroke="#265127" stroke-width="3"/>
      <line id="Line_9-2" data-name="Line 9" x1="336" y2="156" transform="translate(1584.5 512.5)" fill="none" stroke="#265127" stroke-width="3"/>
      <g id="Layer_2-3" data-name="Layer 2" transform="matrix(-0.407, 0.914, -0.914, -0.407, 723.352, 23.698)">
        <g id="Layer_1-3" data-name="Layer 1" transform="translate(1.6 3.001)">
          <path id="Path_12-3" data-name="Path 12" d="M1.6,56.321C122.091-19.939,275.748-13.654,383.412,70.4c93.1,72.669,138.719,193.238,119.646,313.349L707.16,501.7" transform="translate(-1.6 -3.001)" fill="none" stroke="#265127" stroke-miterlimit="10" stroke-width="3"/>
        </g>
      </g>
      <line id="Line_10-2" data-name="Line 10" x2="46" y2="116" transform="translate(1462.5 0.5)" fill="none" stroke="#265127" stroke-width="3"/>
      <line id="Line_11-2" data-name="Line 11" x1="412" y1="202" transform="translate(1508.5 116.5)" fill="none" stroke="#265127" stroke-width="3"/>
      <line id="Line_12-2" data-name="Line 12" x2="246" y2="2" transform="translate(0.5 866.5)" fill="none" stroke="#265127" stroke-width="3"/>
      <line id="Line_13-2" data-name="Line 13" x1="128" y1="207" transform="translate(246.5 868.5)" fill="none" stroke="#265127" stroke-width="3"/>
      <line id="Line_14-2" data-name="Line 14" y1="141" x2="99" transform="translate(1485.5 934.5)" fill="none" stroke="#265127" stroke-width="3"/>
      <line id="Line_15-2" data-name="Line 15" y2="266" transform="translate(1584.5 668.5)" fill="none" stroke="#265127" stroke-width="3"/>
      <line id="Line_16-2" data-name="Line 16" x1="336" y2="156" transform="translate(1584.5 512.5)" fill="none" stroke="#265127" stroke-width="3"/>
      <g id="Layer_2-4" data-name="Layer 2" transform="matrix(-0.407, 0.914, -0.914, -0.407, 723.352, 23.698)">
        <g id="Layer_1-4" data-name="Layer 1" transform="translate(1.6 3.001)">
          <path id="Path_12-4" data-name="Path 12" d="M1.6,56.321C122.091-19.939,275.748-13.654,383.412,70.4c93.1,72.669,138.719,193.238,119.646,313.349L707.16,501.7" transform="translate(-1.6 -3.001)" fill="none" stroke="#265127" stroke-miterlimit="10" stroke-width="3"/>
        </g>
      </g>
      <line id="Line_17-2" data-name="Line 17" x2="46" y2="116" transform="translate(1462.5 0.5)" fill="none" stroke="#265127" stroke-width="3"/>
      <line id="Line_18-2" data-name="Line 18" x1="412" y1="202" transform="translate(1508.5 116.5)" fill="none" stroke="#265127" stroke-width="3"/>
    </g>
  </g>
</svg>
