<svg xmlns="http://www.w3.org/2000/svg" xmlns:xlink="http://www.w3.org/1999/xlink" width="781" height="655" viewBox="0 0 781 655">
  <defs>
    <clipPath id="clip-elementer">
      <rect width="781" height="655"/>
    </clipPath>
  </defs>
  <g id="elementer" clip-path="url(#clip-elementer)">
    <rect width="781" height="655" fill="#f1ecdd"/>
    <g id="Group_17" data-name="Group 17" transform="translate(-92.56 -242.1)">
      <line id="Line_12" data-name="Line 12" x2="149" y2="1" transform="translate(195.5 714.5)" fill="none" stroke="#265127" stroke-width="3"/>
      <line id="Line_13" data-name="Line 13" x1="78" y1="126" transform="translate(344.5 715.5)" fill="none" stroke="#265127" stroke-width="3"/>
      <line id="Line_14" data-name="Line 14" y1="96" x2="67" transform="matrix(0.719, -0.695, 0.695, 0.719, 711.644, 741.506)" fill="none" stroke="#265127" stroke-width="3"/>
      <line id="Line_15" data-name="Line 15" y2="181" transform="matrix(0.719, -0.695, 0.695, 0.719, 634.107, 564.764)" fill="none" stroke="#265127" stroke-width="3"/>
      <line id="Line_16" data-name="Line 16" x1="229" y2="106" transform="matrix(0.719, -0.695, 0.695, 0.719, 560.473, 488.514)" fill="none" stroke="#265127" stroke-width="3"/>
      <g id="Layer_2" data-name="Layer 2" transform="matrix(-0.407, 0.914, -0.914, -0.407, 652.165, 313.947)">
        <g id="Layer_1" data-name="Layer 1" transform="translate(1.6 3.001)">
          <path id="Path_12" data-name="Path 12" d="M1.6,39.563C84.221-12.729,189.585-8.42,263.411,49.22c63.836,49.83,95.121,132.5,82.042,214.866l139.954,80.877" transform="translate(-1.6 -3.001)" fill="none" stroke="#265127" stroke-miterlimit="10" stroke-width="3"/>
        </g>
      </g>
      <line id="Line_17" data-name="Line 17" x2="23" y2="60" transform="translate(459.5 605.5)" fill="none" stroke="#265127" stroke-width="3"/>
      <line id="Line_18" data-name="Line 18" x1="211" y1="103" transform="translate(482.5 665.5)" fill="none" stroke="#265127" stroke-width="3"/>
    </g>
  </g>
</svg>
